<?xml version="1.0" encoding="UTF-8"?> <!-- Generator: Adobe Illustrator 24.0.1, SVG Export Plug-In . SVG Version: 6.00 Build 0) --> <svg xmlns="http://www.w3.org/2000/svg" xmlns:xlink="http://www.w3.org/1999/xlink" version="1.1" id="Layer_1" x="0px" y="0px" viewBox="0 0 75 75" style="enable-background:new 0 0 75 75;" xml:space="preserve"> <path d="M15.6,12.5H6.3V9.4h9.4V12.5z M49.8,12.5l2.5,3.8c2.3,3.5,6.2,5.6,10.4,5.6h6v40.6H6.3V21.9h12.3 c4.2,0,8.1-2.1,10.4-5.6l2.5-3.8H49.8z M51.5,6.3H29.8c-1,0-2,0.5-2.6,1.4l-3.5,5.2c-1.2,1.7-3.1,2.8-5.2,2.8H3.1 C1.4,15.6,0,17,0,18.8v46.9c0,1.7,1.4,3.1,3.1,3.1h68.8c1.7,0,3.1-1.4,3.1-3.1V18.8c0-1.7-1.4-3.1-3.1-3.1h-9.2c-2.1,0-4-1-5.2-2.8 l-3.5-5.2C53.5,6.8,52.5,6.3,51.5,6.3z M18.8,31.3c0-1.7-1.4-3.1-3.1-3.1s-3.1,1.4-3.1,3.1c0,1.7,1.4,3.1,3.1,3.1S18.8,33,18.8,31.3 z M38.8,31.4c6.6-1.3,12.3,4.4,11,11c-0.7,3.7-3.7,6.7-7.4,7.4c-6.6,1.3-12.3-4.4-11-11C32.1,35.1,35.1,32.1,38.8,31.4z M43.1,25.2 c-10.6-1.6-19.5,7.3-17.9,17.9c1,6.6,6.4,12,13,13c10.6,1.6,19.5-7.3,17.9-17.9C55,31.6,49.7,26.2,43.1,25.2z"></path> </svg> 