<?xml version="1.0" encoding="UTF-8"?> <!-- Generator: Adobe Illustrator 24.0.1, SVG Export Plug-In . SVG Version: 6.00 Build 0) --> <svg xmlns="http://www.w3.org/2000/svg" xmlns:xlink="http://www.w3.org/1999/xlink" version="1.1" id="Layer_1" x="0px" y="0px" viewBox="0 0 75 75" style="enable-background:new 0 0 75 75;" xml:space="preserve"> <path d="M15.6,34.4v3.1h25V15.6H9.4v-3.1c0-1.7,1.4-3.1,3.1-3.1h31.3c1.7,0,3.1,1.4,3.1,3.1v6.3h14.6 c3.5,0,5,1.8,6.1,3.5c1.9,2.9,4.8,7.6,6.6,10.6c0.6,1,0.9,2.1,0.9,3.2v14c0,3.4-2.3,6.3-6.3,6.3h-3.1c0,5.2-4.2,9.4-9.4,9.4 s-9.4-4.2-9.4-9.4H34.4c0,5.2-4.2,9.4-9.4,9.4s-9.4-4.2-9.4-9.4h-3.1c-1.7,0-3.1-1.4-3.1-3.1V34.4H3.1v-6.3H25v6.3H15.6z M25,52.5 c2.1,0,3.8,1.7,3.8,3.8S27.1,60,25,60s-3.8-1.7-3.8-3.8S22.9,52.5,25,52.5z M56.3,52.5c2.1,0,3.8,1.7,3.8,3.8S58.3,60,56.3,60 s-3.8-1.7-3.8-3.8S54.2,52.5,56.3,52.5z M46.9,43.7H15.6V50H18c1.7-1.9,4.2-3.1,7-3.1s5.3,1.2,7,3.1h17.3c1.7-1.9,4.2-3.1,7-3.1 s5.3,1.2,7,3.1h5.5V35.7l-5.3-9.2c-0.6-1-1.6-1.5-2.7-1.5H46.9C46.9,25,46.9,43.8,46.9,43.7z M50,28.1v9.4h15.6l-4.5-7.8 c-0.6-1-1.6-1.6-2.7-1.6H50z M0,18.7h25V25H0V18.7z"></path> </svg> 