<?xml version="1.0" encoding="UTF-8"?> <!-- Generator: Adobe Illustrator 24.0.1, SVG Export Plug-In . SVG Version: 6.00 Build 0) --> <svg xmlns="http://www.w3.org/2000/svg" xmlns:xlink="http://www.w3.org/1999/xlink" version="1.1" id="Layer_1" x="0px" y="0px" viewBox="0 0 75 75" style="enable-background:new 0 0 75 75;" xml:space="preserve"> <path d="M54.5,39c8.7,0,15.8,5.6,15.8,12.4c0,3.5-1.4,5.5-3.4,7.8c-0.1,2.3-0.2,3.3,0.4,5.8c-2.8-1-3.1-1.2-5.2-2.5 c-2.8,0.7-4.7,1.2-7.7,1.2c-9.6,0-15.6-6.4-15.6-12.3C38.8,44.6,45.8,39,54.5,39z M54.5,34.3c-10.7,0-20.5,7.2-20.5,17.1 c0,8.7,8.2,17,20.3,17c2.2,0,4.5-0.3,6.9-0.9c2.9,1.8,9.2,3.5,13.6,4.3c-1.7-3.3-3.5-7.7-3.4-10.9c2.2-2.7,3.5-6.1,3.5-9.6 C75,41.5,65.3,34.3,54.5,34.3z M28,48.7c-3.6-0.3-5-0.8-8.2-1.5c-3,1.9-3.9,2.5-9.4,4.3c1.3-4.7,1.1-6.8,1-9.9 c-2.6-3.1-5.3-6.5-5.3-12.3c0-10.9,11.2-19.9,25-19.9c13.3,0,24.2,8.3,24.9,18.8c2.2,0.1,4.3,0.4,6.3,1c-0.1-15.1-14.9-26-31.2-26 C14.7,3.1,0,14.1,0,29.2c0,5.3,1.9,10.6,5.3,14.7c0.1,4.8-2.7,11.6-5.2,16.6c6.8-1.2,16.4-3.9,20.8-6.6c2.5,0.6,4.9,1,7.3,1.2 C27.8,52.7,27.7,50.9,28,48.7z"></path> </svg> 