<?xml version="1.0" encoding="UTF-8"?> <!-- Generator: Adobe Illustrator 24.0.1, SVG Export Plug-In . SVG Version: 6.00 Build 0) --> <svg xmlns="http://www.w3.org/2000/svg" xmlns:xlink="http://www.w3.org/1999/xlink" version="1.1" id="Layer_1" x="0px" y="0px" viewBox="0 0 75 75" style="enable-background:new 0 0 75 75;" xml:space="preserve"> <path d="M37.5,0C16.8,0,0,16.8,0,37.5S16.8,75,37.5,75S75,58.2,75,37.5S58.2,0,37.5,0z M37.5,68.8c-16.1,0-29.3-12.2-31.1-27.8 l7.5,2l4.2-15.6l-9-2.8C14,13.8,24.9,6.3,37.5,6.3c12.6,0,23.5,7.6,28.4,18.4l-9.1,2.7l4.2,15.6l7.5-2 C66.8,56.5,53.6,68.8,37.5,68.8z M34.6,49.9l-2.1,2.8c-0.6,0.8-1.8,1-2.6,0.4c-0.8-0.6-1-1.8-0.4-2.6l2.1-2.8c0.6-0.8,1.8-1,2.6-0.4 C35,47.9,35.2,49.1,34.6,49.9z M30.9,47.2L28.8,50c-0.6,0.8-1.8,1-2.6,0.4c-0.8-0.6-1-1.7-0.4-2.5l2.1-2.9c0.6-0.8,1.7-1,2.6-0.4 C31.3,45.2,31.5,46.4,30.9,47.2z M27.2,44.5l-2.1,2.8c-0.6,0.8-1.8,1-2.6,0.4c-0.8-0.6-1-1.8-0.4-2.6l2.1-2.8c0.6-0.8,1.7-1,2.6-0.4 C27.6,42.5,27.8,43.7,27.2,44.5z M53,45.9c0.7,0.7,0.7,1.9,0,2.6c-0.7,0.7-1.9,0.7-2.6,0l-5.3-5.3c-0.2-0.2-0.5-0.2-0.6,0 c-0.2,0.2-0.2,0.5,0,0.7l4.9,4.9c0.7,0.7,0.7,1.9,0,2.6c-0.7,0.7-1.9,0.7-2.6,0l-4-4c-0.2-0.2-0.5-0.2-0.6,0c-0.2,0.2-0.2,0.5,0,0.7 l3.3,3.3c0.7,0.7,0.7,1.9,0,2.6c-0.7,0.7-1.9,0.7-2.6,0l-1.7-1.7c0.4-2.7-1.6-4.9-4-5.1c-0.6-1.5-2.1-2.6-3.7-2.7 c-0.6-1.5-2-2.6-3.7-2.7c-1.3-3.1-5.6-3.7-7.7-0.9l-1.1,1.6c-1.2-0.4-2.4-0.8-3.9-1.1L20.4,29c4.9,0,8.8-4.7,13.4-1.8 c-1.5,1.8-2.7,3.3-4.6,4.4c-1.5,0.9-2.2,2.6-1.7,4.2c0.6,2.1,2.7,3.5,5.1,3.5c3.3,0,6.6-2.7,9.2-4.6C43.3,36.2,51.8,44.5,53,45.9z M37.9,50c0.8,0.6,1,1.7,0.4,2.6l-2.1,2.8c-0.6,0.8-1.8,1-2.6,0.4c-0.8-0.6-1-1.7-0.4-2.6l2.1-2.8C35.9,49.6,37.1,49.4,37.9,50z M54.6,29L58,41.5c-1.2,0.5-2.4,1.2-3.7,1.9c0,0-8.1-8-10.6-10.5c-1.3-1.3-2.2-1.5-3.7-0.3c-1.9,1.5-4.2,3.1-5.9,3.7 c-3.4,1.2-5.2-1.7-3.6-2.6c3.2-1.9,4.7-4.5,7.4-7.5c0.7-0.8,1.6-1.1,2.5-1.1c1,0,2,0.4,2.8,0.8C47.3,27.9,50.8,29.3,54.6,29z M41.3,53.6c1.3,1.3,0.3,2.6-1.1,2.6c-0.4,0-0.8-0.1-1.2-0.3c0.6-0.8,1.5-1.9,1.8-2.7L41.3,53.6z"></path> </svg> 