<?xml version="1.0" encoding="UTF-8"?> <!-- Generator: Adobe Illustrator 24.0.1, SVG Export Plug-In . SVG Version: 6.00 Build 0) --> <svg xmlns="http://www.w3.org/2000/svg" xmlns:xlink="http://www.w3.org/1999/xlink" version="1.1" id="Layer_1" x="0px" y="0px" viewBox="0 0 75 75" style="enable-background:new 0 0 75 75;" xml:space="preserve"> <style type="text/css"> .st0{fill-rule:evenodd;clip-rule:evenodd;} </style> <path class="st0" d="M53.1,75H21.9v-3.1c4.8-1.1,7.5-4.9,7.8-9.4h15.6c0.3,4.5,3,8.2,7.8,9.4V75z M71.9,59.4c0.8,0,1.6-0.3,2.2-0.9 c0.6-0.6,0.9-1.4,0.9-2.2V3.1c0-0.8-0.3-1.6-0.9-2.2C73.5,0.3,72.7,0,71.9,0H3.1C2.3,0,1.5,0.3,0.9,0.9C0.3,1.5,0,2.3,0,3.1v53.1 c0,0.8,0.3,1.6,0.9,2.2c0.6,0.6,1.4,0.9,2.2,0.9H71.9z M37.5,48.7c1.7,0,3.1,1.4,3.1,3.1c0,1.7-1.4,3.1-3.1,3.1s-3.1-1.4-3.1-3.1 C34.4,50.1,35.8,48.7,37.5,48.7z M68.8,6.3H6.3v37.5h62.5V6.3z"></path> </svg> 