<?xml version="1.0" encoding="UTF-8"?> <!-- Generator: Adobe Illustrator 24.0.1, SVG Export Plug-In . SVG Version: 6.00 Build 0) --> <svg xmlns="http://www.w3.org/2000/svg" xmlns:xlink="http://www.w3.org/1999/xlink" version="1.1" id="Layer_1" x="0px" y="0px" viewBox="0 0 75 75" style="enable-background:new 0 0 75 75;" xml:space="preserve"> <g> <path d="M35.5,6.3c13,0,8.2,18.8,8.2,18.8s18.8-5.2,18.8,7.7v36.1h-50V6.3H35.5z M38.1,0H6.3v75h62.5V30C68.8,22.6,48,0,38.1,0z"></path> <g> <rect x="36.3" y="33.4" width="19.8" height="2.5"></rect> <rect x="36.3" y="45.8" width="19.8" height="2.5"></rect> <rect x="36.3" y="58.1" width="19.8" height="2.5"></rect> <polygon id="check-mark-2_2_" points="30.1,30.1 28.3,28.4 22,34.9 18.2,31.3 16.5,33 22.1,38.3 "></polygon> <polygon id="check-mark-2_3_" points="30.1,42.5 28.3,40.8 22,47.3 18.2,43.7 16.5,45.4 22.1,50.7 "></polygon> <polygon id="check-mark-2_4_" points="30.1,54.9 28.3,53.2 22,59.6 18.2,56.1 16.5,57.8 22.1,63.1 "></polygon> </g> </g> </svg> 